<?xml version="1.0" encoding="utf-8"?>
<!-- Generator: Adobe Illustrator 24.1.0, SVG Export Plug-In . SVG Version: 6.00 Build 0)  -->
<svg version="1.1" id="Capa_1" xmlns="http://www.w3.org/2000/svg" xmlns:xlink="http://www.w3.org/1999/xlink" x="0px" y="0px"
	 viewBox="0 0 841.89 595.28" style="enable-background:new 0 0 841.89 595.28;" xml:space="preserve">
<style type="text/css">
	.st0{fill:#EF7D00;}
</style>
<g>
	<path class="st0" d="M461.23,273.36c0.02-5.36,4.41-9.72,9.75-9.67c5.26,0.05,9.58,4.39,9.62,9.66c0.04,5.31-4.37,9.74-9.7,9.75
		C465.55,283.1,461.21,278.73,461.23,273.36z"/>
	<path class="st0" d="M470.78,260.91c-5.3-0.04-9.56-4.39-9.51-9.7c0.06-5.29,4.4-9.52,9.74-9.48c5.32,0.04,9.53,4.36,9.48,9.71
		C480.43,256.78,476.16,260.95,470.78,260.91z"/>
	<path class="st0" d="M439.23,273.39c0-5.32,4.31-9.64,9.6-9.63c5.28,0.01,9.62,4.36,9.62,9.64c0,5.28-4.35,9.63-9.63,9.63
		C443.53,283.04,439.23,278.71,439.23,273.39z"/>
	<path class="st0" d="M439.31,251.32c0-5.25,4.24-9.52,9.47-9.54c5.27-0.02,9.66,4.39,9.59,9.63c-0.07,5.23-4.37,9.47-9.59,9.45
		C443.54,260.83,439.31,256.57,439.31,251.32z"/>
	<path class="st0" d="M483.75,273.36c0.02-5.15,4.21-9.31,9.31-9.24c5.13,0.07,9.25,4.29,9.19,9.4c-0.06,5.02-4.24,9.15-9.26,9.15
		C487.87,282.69,483.73,278.51,483.75,273.36z"/>
	<path class="st0" d="M470.89,304.71c-5.15,0-9.29-4.16-9.26-9.29c0.03-5.12,4.21-9.23,9.36-9.19c5.07,0.03,9.12,4.11,9.14,9.21
		C480.15,300.62,476.06,304.72,470.89,304.71z"/>
	<path class="st0" d="M439.65,295.48c0-5.08,4.08-9.19,9.13-9.21c5.1-0.02,9.33,4.22,9.26,9.3c-0.06,5.05-4.21,9.13-9.26,9.11
		C443.71,304.66,439.65,300.56,439.65,295.48z"/>
	<path class="st0" d="M483.8,251.26c0.02-5.07,4.13-9.16,9.19-9.15c5.03,0.01,9.19,4.15,9.21,9.18c0.02,5.1-4.19,9.27-9.32,9.23
		C487.82,260.47,483.78,256.35,483.8,251.26z"/>
	<path class="st0" d="M426.5,282.48c-5-0.02-9.04-4.06-9.05-9.06c-0.01-5.06,4.09-9.13,9.18-9.11c5.02,0.02,9.01,4.04,9.03,9.07
		C435.67,278.47,431.62,282.5,426.5,282.48z"/>
	<path class="st0" d="M480.01,229.08c0,5.04-4.19,9.19-9.21,9.12c-4.99-0.07-9-4.14-9-9.14c0.01-5.07,4.17-9.2,9.19-9.12
		C475.98,220.01,480.02,224.1,480.01,229.08z"/>
	<path class="st0" d="M435.6,251.35c-0.01,5.02-4.07,9.08-9.07,9.05c-4.98-0.02-9.07-4.13-9.05-9.11c0.01-4.98,4.12-9.06,9.11-9.04
		C431.61,242.27,435.62,246.31,435.6,251.35z"/>
	<path class="st0" d="M457.86,229c0.03,5.03-3.96,9.1-8.97,9.15c-4.95,0.05-9.11-4.04-9.14-9.01c-0.04-4.98,4.01-9.08,9.01-9.13
		C453.75,219.95,457.83,223.98,457.86,229z"/>
	<path class="st0" d="M492.97,304.41c-4.95,0-8.93-3.96-8.96-8.9c-0.02-5,4.04-9,9.07-8.96c4.95,0.04,8.88,4.03,8.86,8.99
		C501.91,300.48,497.94,304.42,492.97,304.41z"/>
	<path class="st0" d="M417.75,295.41c0.03-4.88,4.01-8.83,8.88-8.79c4.84,0.04,8.84,4.1,8.8,8.92c-0.05,4.86-4.06,8.81-8.92,8.78
		C421.62,304.29,417.73,300.32,417.75,295.41z"/>
	<path class="st0" d="M484.16,229.08c0-4.89,3.93-8.86,8.81-8.86c4.84,0,8.86,4,8.87,8.84c0.01,4.84-3.99,8.85-8.85,8.85
		C488.1,237.91,484.17,233.97,484.16,229.08z"/>
	<path class="st0" d="M435.27,229.08c-0.01,4.84-3.91,8.75-8.72,8.73c-4.78-0.01-8.73-3.98-8.73-8.77c0.01-4.79,3.97-8.74,8.76-8.73
		C431.42,220.34,435.28,224.23,435.27,229.08z"/>
	<path class="st0" d="M506.4,273.4c0-4.84,3.88-8.72,8.7-8.7c4.78,0.02,8.72,4.01,8.67,8.77c-0.05,4.73-3.93,8.58-8.66,8.6
		C510.27,282.1,506.4,278.24,506.4,273.4z"/>
	<path class="st0" d="M462.24,317.55c0-4.83,3.89-8.71,8.71-8.69c4.78,0.02,8.72,4.02,8.66,8.78c-0.06,4.73-3.94,8.57-8.67,8.59
		C466.11,326.26,462.24,322.4,462.24,317.55z"/>
	<path class="st0" d="M457.45,317.6c-0.02,4.77-3.87,8.62-8.63,8.62c-4.73,0-8.64-3.88-8.68-8.62c-0.03-4.77,3.98-8.77,8.76-8.72
		C453.66,308.94,457.47,312.82,457.45,317.6z"/>
	<path class="st0" d="M506.42,251.26c0.02-4.78,3.85-8.57,8.65-8.56c4.78,0.01,8.63,3.83,8.66,8.59c0.02,4.81-3.94,8.72-8.77,8.66
		C510.17,259.89,506.4,256.06,506.42,251.26z"/>
	<path class="st0" d="M479.39,206.97c0.01,4.73-3.77,8.53-8.48,8.54c-4.68,0.01-8.55-3.83-8.56-8.51c-0.01-4.68,3.82-8.5,8.52-8.52
		C475.61,198.47,479.39,202.23,479.39,206.97z"/>
	<path class="st0" d="M412.98,273.47c-0.03,4.72-3.87,8.51-8.56,8.46c-4.69-0.05-8.52-3.93-8.47-8.59c0.04-4.69,3.9-8.47,8.61-8.43
		C409.29,264.93,413.01,268.71,412.98,273.47z"/>
	<path class="st0" d="M523.52,295.5c-0.01,4.71-3.83,8.5-8.53,8.47c-4.6-0.03-8.39-3.82-8.44-8.43c-0.05-4.64,3.83-8.55,8.49-8.56
		C519.72,286.96,523.53,290.79,523.52,295.5z"/>
	<path class="st0" d="M412.95,251.43c-0.04,4.7-3.91,8.46-8.62,8.38c-4.6-0.08-8.37-3.92-8.35-8.51c0.02-4.66,3.91-8.51,8.57-8.48
		C409.24,242.85,413,246.71,412.95,251.43z"/>
	<path class="st0" d="M448.78,198.54c4.72-0.02,8.55,3.77,8.55,8.45c0,4.68-3.85,8.49-8.55,8.46c-4.66-0.02-8.39-3.73-8.42-8.38
		C440.32,202.32,444.04,198.55,448.78,198.54z"/>
	<path class="st0" d="M493.04,309.11c4.7,0.03,8.53,3.9,8.45,8.56c-0.08,4.63-3.85,8.34-8.48,8.36c-4.73,0.02-8.5-3.75-8.49-8.48
		C484.52,312.81,488.29,309.08,493.04,309.11z"/>
	<path class="st0" d="M434.93,317.56c0,4.68-3.7,8.36-8.38,8.36c-4.64,0-8.4-3.75-8.4-8.38c0-4.62,3.77-8.37,8.41-8.37
		C431.24,309.18,434.94,312.89,434.93,317.56z"/>
	<path class="st0" d="M506.72,229.15c-0.04-4.68,3.65-8.43,8.31-8.46c4.6-0.03,8.43,3.78,8.43,8.38c0,4.54-3.7,8.29-8.26,8.39
		C510.58,237.55,506.75,233.79,506.72,229.15z"/>
	<path class="st0" d="M501.29,207.04c-0.02,4.59-3.69,8.27-8.28,8.28c-4.63,0.01-8.43-3.78-8.4-8.39c0.04-4.54,3.78-8.28,8.33-8.29
		C497.59,198.62,501.31,202.37,501.29,207.04z"/>
	<path class="st0" d="M396.18,295.49c-0.01-4.68,3.71-8.37,8.39-8.33c4.58,0.04,8.28,3.75,8.29,8.3c0.01,4.6-3.83,8.41-8.43,8.35
		C399.83,303.77,396.18,300.09,396.18,295.49z"/>
	<path class="st0" d="M434.82,206.99c0,4.55-3.76,8.29-8.3,8.26c-4.56-0.03-8.24-3.79-8.18-8.36c0.06-4.51,3.7-8.15,8.2-8.18
		C431.06,198.69,434.82,202.44,434.82,206.99z"/>
	<path class="st0" d="M404.48,237.28c-4.6-0.01-8.26-3.68-8.24-8.27c0.02-4.57,3.73-8.21,8.34-8.17c4.52,0.04,8.12,3.65,8.14,8.19
		C412.74,233.63,409.09,237.29,404.48,237.28z"/>
	<path class="st0" d="M514.99,325.61c-4.47-0.03-8.02-3.61-8-8.08c0.02-4.53,3.66-8.08,8.23-8.02c4.43,0.06,7.97,3.71,7.92,8.17
		C523.08,322.11,519.46,325.64,514.99,325.61z"/>
	<path class="st0" d="M537.24,281.43c-4.48-0.03-8.01-3.62-7.97-8.11c0.04-4.48,3.62-7.99,8.11-7.96c4.45,0.03,8.02,3.66,7.99,8.11
		C545.34,277.92,541.72,281.46,537.24,281.43z"/>
	<path class="st0" d="M471.01,331.77c4.44,0.04,8.01,3.69,7.96,8.14c-0.05,4.44-3.68,7.96-8.17,7.92c-4.47-0.04-7.99-3.65-7.93-8.14
		C462.92,335.23,466.51,331.73,471.01,331.77z"/>
	<path class="st0" d="M529.31,251.3c0.01-4.48,3.62-8.07,8.07-8.02c4.44,0.04,8.04,3.72,7.98,8.15c-0.06,4.35-3.67,7.93-8.02,7.95
		C532.89,259.39,529.3,255.78,529.31,251.3z"/>
	<path class="st0" d="M448.77,347.83c-4.46-0.02-8.05-3.66-8-8.11c0.05-4.45,3.7-7.99,8.18-7.93c4.39,0.05,7.88,3.61,7.88,8.03
		C456.83,344.31,453.28,347.85,448.77,347.83z"/>
	<path class="st0" d="M507.11,207.01c-0.01-4.41,3.54-7.99,7.93-8c4.35-0.01,7.99,3.61,8.01,7.96c0.02,4.36-3.6,7.98-7.97,7.99
		C510.68,214.97,507.12,211.41,507.11,207.01z"/>
	<path class="st0" d="M396.54,317.58c-0.01-4.41,3.54-7.99,7.92-8c4.35-0.01,7.99,3.6,8.01,7.96c0.02,4.35-3.59,7.98-7.96,7.99
		C400.11,325.54,396.55,321.99,396.54,317.58z"/>
	<path class="st0" d="M537.24,303.34c-4.33-0.03-7.81-3.52-7.82-7.84c-0.01-4.38,3.55-7.91,7.96-7.88c4.34,0.02,7.78,3.49,7.8,7.85
		C545.19,299.88,541.68,303.37,537.24,303.34z"/>
	<path class="st0" d="M470.83,192.77c-4.33-0.03-7.81-3.52-7.82-7.84c-0.01-4.38,3.55-7.9,7.96-7.88c4.34,0.02,7.78,3.49,7.8,7.85
		C478.78,189.32,475.27,192.8,470.83,192.77z"/>
	<path class="st0" d="M374.54,273.4c0-4.32,3.46-7.85,7.78-7.91c4.34-0.06,7.98,3.54,7.98,7.9c0,4.37-3.63,7.97-7.97,7.91
		C378.02,281.25,374.54,277.72,374.54,273.4z"/>
	<path class="st0" d="M500.87,339.83c-0.01,4.37-3.65,7.96-7.99,7.89c-4.31-0.07-7.78-3.6-7.77-7.92c0.01-4.32,3.49-7.84,7.8-7.89
		C497.25,331.85,500.88,335.46,500.87,339.83z"/>
	<path class="st0" d="M412.3,206.96c0.01,4.35-3.47,7.86-7.79,7.88c-4.29,0.01-7.87-3.54-7.88-7.83c-0.02-4.3,3.51-7.84,7.83-7.86
		C408.8,199.13,412.29,202.6,412.3,206.96z"/>
	<path class="st0" d="M382.34,259.15c-4.35-0.03-7.78-3.52-7.75-7.9c0.03-4.36,3.53-7.8,7.89-7.77c4.31,0.03,7.84,3.6,7.8,7.91
		C390.23,255.71,386.69,259.18,382.34,259.15z"/>
	<path class="st0" d="M448.79,192.74c-4.36-0.01-7.8-3.49-7.78-7.87c0.02-4.36,3.5-7.82,7.86-7.8c4.32,0.02,7.85,3.57,7.83,7.88
		C456.66,189.26,453.13,192.75,448.79,192.74z"/>
	<path class="st0" d="M545.09,229c0.03,4.36-3.42,7.87-7.76,7.88c-4.32,0.01-7.87-3.53-7.86-7.82c0.01-4.22,3.49-7.74,7.72-7.8
		C541.52,221.19,545.07,224.66,545.09,229z"/>
	<path class="st0" d="M418.78,339.8c0.01-4.37,3.48-7.8,7.84-7.77c4.27,0.03,7.72,3.46,7.77,7.71c0.05,4.29-3.48,7.85-7.8,7.87
		C422.26,347.64,418.78,344.15,418.78,339.8z"/>
	<path class="st0" d="M374.68,295.5c-0.01-4.25,3.46-7.76,7.7-7.78c4.24-0.02,7.73,3.46,7.75,7.73c0.02,4.26-3.44,7.76-7.69,7.78
		C378.2,303.25,374.69,299.75,374.68,295.5z"/>
	<path class="st0" d="M485.25,184.82c0.04-4.24,3.61-7.73,7.82-7.66c4.27,0.07,7.68,3.58,7.63,7.84c-0.05,4.27-3.57,7.72-7.81,7.66
		C488.64,192.6,485.21,189.08,485.25,184.82z"/>
	<path class="st0" d="M426.5,177.28c4.24-0.04,7.65,3.29,7.69,7.52c0.05,4.31-3.37,7.78-7.65,7.76c-4.19-0.01-7.63-3.45-7.65-7.63
		C418.88,180.74,422.28,177.31,426.5,177.28z"/>
	<path class="st0" d="M390.03,229.09c-0.01,4.22-3.39,7.61-7.61,7.63c-4.18,0.01-7.64-3.41-7.69-7.59
		c-0.04-4.25,3.46-7.73,7.74-7.69C386.72,221.48,390.04,224.84,390.03,229.09z"/>
	<path class="st0" d="M507.5,339.77c0.02-4.12,3.39-7.51,7.51-7.55c4.17-0.04,7.63,3.43,7.61,7.62c-0.02,4.14-3.39,7.52-7.51,7.55
		C510.93,347.42,507.48,343.97,507.5,339.77z"/>
	<path class="st0" d="M529.75,317.52c0.02-4.12,3.39-7.51,7.51-7.55c4.17-0.04,7.63,3.43,7.61,7.62c-0.02,4.14-3.39,7.52-7.51,7.55
		C533.18,325.17,529.73,321.72,529.75,317.52z"/>
	<path class="st0" d="M544.74,206.99c0,4.11-3.24,7.38-7.35,7.43c-4.15,0.05-7.56-3.31-7.55-7.43c0-4.13,3.39-7.45,7.56-7.41
		C541.51,199.61,544.74,202.88,544.74,206.99z"/>
	<path class="st0" d="M404.57,332.4c4.18,0.04,7.42,3.38,7.35,7.58c-0.07,4.08-3.41,7.31-7.51,7.26c-4.08-0.05-7.39-3.37-7.39-7.43
		C397.01,335.69,400.4,332.36,404.57,332.4z"/>
	<path class="st0" d="M522.46,184.88c0.01,4.09-3.29,7.43-7.37,7.45c-4.06,0.02-7.43-3.33-7.45-7.4c-0.02-4.05,3.34-7.44,7.39-7.46
		C519.09,177.46,522.45,180.8,522.46,184.88z"/>
	<path class="st0" d="M382.4,324.93c-4.12,0-7.4-3.28-7.39-7.38c0-4.11,3.29-7.37,7.4-7.37c4.11,0,7.42,3.29,7.41,7.38
		C389.82,321.65,386.52,324.94,382.4,324.93z"/>
	<path class="st0" d="M566.74,273.41c0,4.12-3.26,7.35-7.4,7.33c-4.09-0.02-7.37-3.34-7.32-7.43c0.05-4.01,3.32-7.24,7.33-7.25
		C563.47,266.04,566.74,269.29,566.74,273.41z"/>
	<path class="st0" d="M478.27,361.8c0.04,4.06-3.27,7.44-7.32,7.47c-4.06,0.03-7.39-3.3-7.39-7.38c0-4.03,3.18-7.28,7.22-7.39
		C474.79,354.4,478.23,357.75,478.27,361.8z"/>
	<path class="st0" d="M456.15,361.91c-0.01,4.08-3.35,7.4-7.4,7.36c-4.05-0.05-7.35-3.43-7.3-7.48c0.05-3.98,3.36-7.25,7.34-7.27
		C452.86,354.5,456.16,357.82,456.15,361.91z"/>
	<path class="st0" d="M566.72,251.26c0.03,4.09-3.25,7.43-7.32,7.44c-4.04,0.01-7.39-3.35-7.38-7.4c0.01-3.99,3.25-7.27,7.26-7.35
		C563.32,243.86,566.69,247.17,566.72,251.26z"/>
	<path class="st0" d="M389.67,207c0,4.04-3.24,7.28-7.27,7.27c-4-0.01-7.3-3.31-7.29-7.3c0.01-3.98,3.33-7.29,7.32-7.28
		C386.43,199.7,389.67,202.97,389.67,207z"/>
	<path class="st0" d="M397.23,184.97c-0.03-4.07,3.13-7.28,7.2-7.32c4.03-0.03,7.32,3.18,7.37,7.19c0.05,3.98-3.23,7.3-7.24,7.33
		C400.51,192.21,397.26,189.01,397.23,184.97z"/>
	<path class="st0" d="M493.01,369.09c-4.05,0.02-7.32-3.25-7.28-7.25c0.04-3.97,3.23-7.14,7.21-7.15c4.06-0.01,7.28,3.2,7.26,7.25
		C500.18,365.92,497.01,369.07,493.01,369.09z"/>
	<path class="st0" d="M559.36,302.68c-3.97-0.01-7.17-3.18-7.21-7.14c-0.04-4.02,3.22-7.27,7.27-7.26c4.05,0.01,7.25,3.26,7.19,7.32
		C566.56,299.56,563.36,302.69,559.36,302.68z"/>
	<path class="st0" d="M367.35,273.32c0.04,3.95-3.16,7.23-7.11,7.29c-3.94,0.06-7.21-3.16-7.25-7.13c-0.04-3.98,3.13-7.23,7.09-7.29
		C364.01,266.13,367.31,269.38,367.35,273.32z"/>
	<path class="st0" d="M478.02,162.58c0.04,4.02-3.1,7.2-7.1,7.21c-3.97,0.01-7.21-3.2-7.2-7.15c0.01-3.87,3.18-7.08,7.05-7.13
		C474.78,155.46,477.99,158.58,478.02,162.58z"/>
	<path class="st0" d="M448.78,169.79c-4-0.02-7.12-3.21-7.08-7.23c0.04-3.93,3.17-7.04,7.09-7.06c3.96-0.02,7.21,3.21,7.21,7.15
		C455.99,166.61,452.75,169.81,448.78,169.79z"/>
	<path class="st0" d="M426.65,369.03c-4.01,0.03-7.19-3.1-7.21-7.1c-0.01-4.01,3.14-7.19,7.13-7.18c3.89,0,7.09,3.14,7.16,7.02
		C433.81,365.71,430.6,368.99,426.65,369.03z"/>
	<path class="st0" d="M559.38,236.2c-4,0-7.14-3.18-7.11-7.2c0.03-3.93,3.14-7.06,7.05-7.09c3.96-0.03,7.23,3.17,7.24,7.12
		C566.58,232.99,563.35,236.21,559.38,236.2z"/>
	<path class="st0" d="M360.17,258.46c-4,0.01-7.16-3.16-7.14-7.17c0.02-4,3.2-7.15,7.2-7.11c3.88,0.03,7.06,3.22,7.09,7.09
		C367.36,255.21,364.14,258.45,360.17,258.46z"/>
	<path class="st0" d="M544.39,339.86c-0.02,3.93-3.16,7.05-7.09,7.04c-3.91-0.01-7.09-3.16-7.13-7.05
		c-0.03-3.95,3.22-7.15,7.22-7.11C541.34,332.78,544.41,335.91,544.39,339.86z"/>
	<path class="st0" d="M353.13,295.53c-0.03-3.87,3.16-7.1,7.02-7.1c3.88-0.01,7.04,3.18,7.02,7.08c-0.02,3.83-3.09,6.95-6.92,7.01
		C356.4,302.59,353.15,299.4,353.13,295.53z"/>
	<path class="st0" d="M499.99,162.62c0.02,3.9-3.14,7.09-7.02,7.08c-3.8-0.01-6.96-3.13-7.01-6.93c-0.06-3.88,3.08-7.11,6.95-7.17
		C496.77,155.55,499.97,158.72,499.99,162.62z"/>
	<path class="st0" d="M433.51,162.65c0,3.86-3.05,6.96-6.89,7c-3.85,0.04-7.09-3.21-7.04-7.07c0.05-3.81,3.21-6.92,7.02-6.89
		C430.46,155.71,433.51,158.78,433.51,162.65z"/>
	<path class="st0" d="M367.1,229.05c0.01,3.86-3.03,6.96-6.88,7.01c-3.84,0.05-7.09-3.2-7.06-7.05c0.04-3.81,3.19-6.92,7.01-6.91
		C364.03,222.11,367.09,225.18,367.1,229.05z"/>
	<path class="st0" d="M389.32,339.75c0.03,3.88-3.03,6.99-6.9,7c-3.83,0.01-7-3.15-6.98-6.96c0.02-3.74,3.11-6.87,6.85-6.92
		C386.15,332.81,389.3,335.89,389.32,339.75z"/>
	<path class="st0" d="M566.3,317.55c0,3.87-3.09,6.96-6.95,6.94c-3.81-0.02-6.98-3.23-6.92-7.01c0.06-3.75,3.17-6.84,6.9-6.86
		C563.18,310.59,566.29,313.69,566.3,317.55z"/>
	<path class="st0" d="M530.4,184.83c0.03-3.87,3.14-6.89,7.04-6.83c3.78,0.06,6.83,3.14,6.83,6.9c0,3.82-3.17,6.96-7,6.93
		C533.4,191.81,530.36,188.71,530.4,184.83z"/>
	<path class="st0" d="M508.15,361.93c-0.02-3.89,3.02-6.94,6.91-6.94c3.85,0,6.99,3.13,6.95,6.95c-0.03,3.76-3.1,6.82-6.87,6.87
		C511.28,368.86,508.17,365.8,508.15,361.93z"/>
	<path class="st0" d="M404.49,368.7c-3.8,0-6.85-3.02-6.85-6.8c0-3.77,3.05-6.82,6.83-6.83c3.81-0.01,6.82,3,6.83,6.81
		C411.31,365.69,408.31,368.7,404.49,368.7z"/>
	<path class="st0" d="M566.24,207.01c-0.01,3.75-3.13,6.85-6.87,6.84c-3.76-0.01-6.81-3.1-6.8-6.89c0.01-3.79,3.09-6.86,6.85-6.84
		C563.17,200.15,566.25,203.26,566.24,207.01z"/>
	<path class="st0" d="M375.63,184.88c0.02-3.8,3.05-6.8,6.85-6.77c3.69,0.03,6.71,3.05,6.74,6.74c0.03,3.76-3.03,6.84-6.81,6.85
		C378.62,191.7,375.62,188.69,375.63,184.88z"/>
	<path class="st0" d="M521.79,162.66c0,3.73-2.98,6.73-6.69,6.75c-3.69,0.02-6.76-2.98-6.82-6.67c-0.06-3.72,3.08-6.88,6.82-6.85
		C518.8,155.91,521.79,158.94,521.79,162.66z"/>
	<path class="st0" d="M353.43,317.52c0.02-3.74,2.98-6.68,6.73-6.68c3.72,0,6.74,2.98,6.78,6.68c0.03,3.74-3.09,6.82-6.86,6.78
		C356.34,324.25,353.41,321.26,353.43,317.52z"/>
	<path class="st0" d="M411.16,162.74c-0.05,3.63-3.09,6.62-6.71,6.6c-3.72-0.03-6.68-3.11-6.59-6.85c0.09-3.66,3.14-6.6,6.76-6.5
		C408.27,156.08,411.2,159.11,411.16,162.74z"/>
	<path class="st0" d="M360.15,213.62c-3.67,0-6.64-2.94-6.66-6.59c-0.02-3.72,3.01-6.72,6.76-6.68c3.68,0.04,6.57,2.99,6.55,6.69
		C366.77,210.73,363.85,213.62,360.15,213.62z"/>
	<path class="st0" d="M574.89,273.32c0.03-3.67,3-6.58,6.67-6.54c3.63,0.04,6.61,3.08,6.55,6.69c-0.05,3.64-3.06,6.56-6.71,6.53
		C577.73,279.97,574.85,277.02,574.89,273.32z"/>
	<path class="st0" d="M464.31,383.95c0.01-3.68,2.94-6.61,6.6-6.6c3.63,0.01,6.63,3.01,6.62,6.63c-0.01,3.63-3,6.59-6.65,6.59
		C467.21,390.57,464.31,387.64,464.31,383.95z"/>
	<path class="st0" d="M455.39,383.97c0,3.68-2.94,6.61-6.61,6.59c-3.64-0.02-6.63-3.06-6.57-6.67c0.06-3.56,3.01-6.49,6.57-6.52
		C452.43,377.34,455.38,380.29,455.39,383.97z"/>
	<path class="st0" d="M581.43,244.76c3.66-0.02,6.66,2.93,6.65,6.57c0,3.62-3.03,6.61-6.66,6.58c-3.61-0.03-6.49-2.9-6.52-6.5
		C574.87,247.7,577.74,244.78,581.43,244.76z"/>
	<path class="st0" d="M565.89,339.76c0.03,3.58-2.92,6.56-6.49,6.57c-3.58,0.01-6.51-2.94-6.48-6.56c0.02-3.55,2.85-6.42,6.38-6.48
		C562.85,333.23,565.87,336.18,565.89,339.76z"/>
	<path class="st0" d="M537.34,368.36c-3.64,0.01-6.54-2.87-6.53-6.48c0.01-3.6,2.93-6.48,6.55-6.46c3.56,0.02,6.38,2.83,6.42,6.4
		C543.83,365.45,540.98,368.35,537.34,368.36z"/>
	<path class="st0" d="M486.54,383.97c0-3.61,2.92-6.52,6.49-6.48c3.58,0.04,6.49,3.02,6.44,6.58c-0.05,3.49-2.95,6.37-6.44,6.4
		C489.45,390.5,486.53,387.57,486.54,383.97z"/>
	<path class="st0" d="M581.46,301.93c-3.61-0.01-6.51-2.91-6.48-6.5c0.03-3.58,2.97-6.45,6.58-6.41c3.54,0.04,6.34,2.87,6.35,6.42
		C587.93,299.08,585.09,301.94,581.46,301.93z"/>
	<path class="st0" d="M587.87,229.13c-0.03,3.55-2.87,6.37-6.42,6.36c-3.52-0.01-6.41-2.89-6.43-6.4c-0.01-3.56,2.98-6.51,6.56-6.45
		C585.11,222.69,587.9,225.56,587.87,229.13z"/>
	<path class="st0" d="M426.61,377.57c3.54,0.03,6.4,2.89,6.4,6.4c0,3.56-3.02,6.51-6.58,6.43c-3.55-0.08-6.31-2.95-6.27-6.51
		C420.2,380.33,423.05,377.54,426.61,377.57z"/>
	<path class="st0" d="M382.39,368.28c-3.53-0.01-6.37-2.9-6.35-6.45c0.03-3.46,2.84-6.3,6.29-6.34c3.49-0.04,6.45,2.87,6.47,6.37
		C388.83,365.36,385.9,368.29,382.39,368.28z"/>
	<path class="st0" d="M344.44,251.32c0,3.55-2.88,6.42-6.41,6.39c-3.51-0.02-6.42-2.99-6.36-6.48c0.06-3.45,2.91-6.29,6.35-6.32
		C341.54,244.89,344.44,247.78,344.44,251.32z"/>
	<path class="st0" d="M338,267.04c3.59-0.03,6.43,2.75,6.44,6.33c0.01,3.57-2.82,6.4-6.39,6.39c-3.49-0.01-6.31-2.77-6.39-6.25
		C331.58,270,334.45,267.08,338,267.04z"/>
	<path class="st0" d="M559.31,178.53c3.43-0.06,6.32,2.73,6.44,6.21c0.12,3.5-2.74,6.49-6.27,6.54c-3.44,0.05-6.35-2.75-6.43-6.2
		C552.96,181.53,555.78,178.59,559.31,178.53z"/>
	<path class="st0" d="M448.9,134.23c3.55,0.04,6.41,2.97,6.32,6.47c-0.09,3.55-3,6.31-6.56,6.23c-3.49-0.08-6.22-2.89-6.2-6.39
		C442.47,136.98,445.32,134.19,448.9,134.23z"/>
	<path class="st0" d="M470.93,134.23c3.57,0.01,6.36,2.85,6.33,6.43c-0.03,3.48-2.82,6.25-6.31,6.27c-3.56,0.02-6.44-2.81-6.45-6.34
		C464.5,137.06,467.37,134.21,470.93,134.23z"/>
	<path class="st0" d="M543.64,162.7c-0.03,3.46-2.89,6.31-6.34,6.3c-3.46,0-6.29-2.83-6.31-6.31c-0.02-3.55,2.9-6.46,6.41-6.39
		C540.87,156.37,543.67,159.25,543.64,162.7z"/>
	<path class="st0" d="M360.13,346.11c-3.5-0.01-6.3-2.8-6.3-6.28c-0.01-3.55,2.86-6.37,6.44-6.32c3.49,0.05,6.24,2.88,6.2,6.38
		C366.43,343.39,363.65,346.12,360.13,346.11z"/>
	<path class="st0" d="M492.97,134.31c3.48-0.01,6.25,2.8,6.24,6.29c-0.01,3.43-2.73,6.18-6.14,6.22c-3.47,0.04-6.34-2.75-6.37-6.2
		C486.66,137.2,489.52,134.32,492.97,134.31z"/>
	<path class="st0" d="M331.85,295.51c-0.01-3.52,2.73-6.27,6.24-6.27c3.47,0,6.31,2.85,6.27,6.29c-0.04,3.38-2.82,6.16-6.2,6.2
		C334.68,301.79,331.86,299,331.85,295.51z"/>
	<path class="st0" d="M508.86,383.94c0.01-3.41,2.78-6.19,6.18-6.2c3.36-0.01,6.2,2.8,6.24,6.17c0.04,3.43-2.86,6.32-6.3,6.28
		C511.58,390.15,508.85,387.36,508.86,383.94z"/>
	<path class="st0" d="M581.41,311.33c3.36-0.04,6.21,2.74,6.29,6.13c0.08,3.35-2.7,6.24-6.08,6.32c-3.47,0.08-6.33-2.72-6.34-6.2
		C575.27,314.16,578.01,311.37,581.41,311.33z"/>
	<path class="st0" d="M432.75,140.53c0.02,3.42-2.73,6.22-6.14,6.25c-3.38,0.03-6.22-2.77-6.25-6.17c-0.03-3.38,2.78-6.23,6.16-6.26
		C429.92,134.33,432.73,137.12,432.75,140.53z"/>
	<path class="st0" d="M338.13,222.91c3.43,0.02,6.19,2.81,6.15,6.22c-0.04,3.42-2.82,6.14-6.26,6.11c-3.45-0.03-6.15-2.78-6.12-6.22
		C331.92,225.58,334.68,222.88,338.13,222.91z"/>
	<path class="st0" d="M388.59,162.66c0,3.43-2.73,6.15-6.18,6.15c-3.44,0-6.2-2.74-6.19-6.15c0-3.42,2.76-6.16,6.19-6.15
		C385.85,156.5,388.59,159.23,388.59,162.66z"/>
	<path class="st0" d="M366.33,184.9c0.01,3.43-2.72,6.16-6.16,6.16c-3.44,0.01-6.2-2.72-6.2-6.14c-0.01-3.42,2.75-6.16,6.18-6.17
		C363.59,178.75,366.33,181.47,366.33,184.9z"/>
	<path class="st0" d="M410.57,383.9c0.03,3.38-2.6,6.12-5.96,6.2c-3.37,0.08-6.25-2.75-6.24-6.13c0.01-3.32,2.75-6.07,6.09-6.1
		C407.81,377.83,410.53,380.52,410.57,383.9z"/>
	<path class="st0" d="M587.55,207.02c-0.01,3.37-2.72,6.09-6.07,6.09c-3.32,0-6.1-2.75-6.13-6.07c-0.04-3.39,2.8-6.21,6.2-6.16
		C584.92,200.92,587.56,203.63,587.55,207.02z"/>
	<path class="st0" d="M338.1,311.6c3.3,0.01,5.95,2.65,5.96,5.94c0.01,3.36-2.69,6.02-6.09,5.98c-3.31-0.04-5.9-2.7-5.86-6.02
		C332.15,314.18,334.78,311.59,338.1,311.6z"/>
	<path class="st0" d="M521.04,140.55c0.01,3.3-2.61,5.95-5.91,5.98c-3.41,0.03-6.07-2.62-6.04-6.01c0.03-3.32,2.66-5.9,5.98-5.9
		C518.37,134.62,521.03,137.26,521.04,140.55z"/>
	<path class="st0" d="M565.29,361.82c0.03,3.31-2.59,6-5.87,6.02c-3.25,0.02-5.98-2.7-5.98-5.96c0.01-3.2,2.61-5.84,5.83-5.92
		C562.57,355.89,565.26,358.51,565.29,361.82z"/>
	<path class="st0" d="M332.22,207.02c-0.01-3.25,2.56-5.88,5.79-5.93c3.25-0.05,6.02,2.71,5.98,5.95c-0.04,3.2-2.71,5.84-5.92,5.83
		C334.83,212.87,332.23,210.26,332.22,207.02z"/>
	<path class="st0" d="M398.63,140.51c0.03-3.23,2.66-5.84,5.88-5.84c3.19,0.01,5.87,2.68,5.89,5.87c0.02,3.25-2.74,5.97-6.01,5.91
		C401.15,146.4,398.6,143.77,398.63,140.51z"/>
	<path class="st0" d="M587.21,339.82c0,3.19-2.54,5.77-5.71,5.79c-3.2,0.02-5.88-2.69-5.82-5.89c0.05-3.15,2.69-5.72,5.84-5.69
		C584.7,334.06,587.22,336.62,587.21,339.82z"/>
	<path class="st0" d="M543.06,383.94c0.01,3.2-2.5,5.77-5.68,5.82c-3.2,0.04-5.89-2.65-5.86-5.85c0.04-3.15,2.65-5.73,5.8-5.72
		C540.5,378.19,543.04,380.75,543.06,383.94z"/>
	<path class="st0" d="M559.31,168.39c-3.19-0.04-5.67-2.6-5.64-5.82c0.04-3.19,2.61-5.71,5.8-5.66c3.15,0.04,5.73,2.7,5.68,5.83
		C565.1,165.9,562.49,168.43,559.31,168.39z"/>
	<path class="st0" d="M360.12,367.63c-3.2-0.02-5.7-2.56-5.68-5.78c0.02-3.2,2.57-5.73,5.76-5.71c3.15,0.02,5.75,2.64,5.73,5.79
		C365.9,365.09,363.3,367.64,360.12,367.63z"/>
	<path class="st0" d="M476.62,406.22c0,3.2-2.54,5.77-5.71,5.76c-3.15,0-5.77-2.61-5.77-5.75c-0.01-3.15,2.58-5.73,5.76-5.74
		C474.09,400.48,476.61,403.01,476.62,406.22z"/>
	<path class="st0" d="M609.44,273.35c0.02,3.21-2.49,5.78-5.67,5.81c-3.14,0.03-5.78-2.56-5.82-5.7c-0.04-3.14,2.54-5.75,5.71-5.79
		C606.86,267.63,609.42,270.14,609.44,273.35z"/>
	<path class="st0" d="M609.42,251.34c-0.01,3.2-2.57,5.74-5.76,5.7c-3.09-0.03-5.64-2.57-5.68-5.65c-0.05-3.12,2.58-5.79,5.72-5.8
		C606.87,245.57,609.43,248.14,609.42,251.34z"/>
	<path class="st0" d="M443.12,406.22c0-3.21,2.53-5.72,5.74-5.69c3.19,0.03,5.76,2.64,5.7,5.78c-0.06,3.09-2.6,5.6-5.7,5.63
		C445.69,411.98,443.12,409.42,443.12,406.22z"/>
	<path class="st0" d="M382.39,378.33c3.14-0.01,5.65,2.45,5.69,5.58c0.04,3.17-2.53,5.73-5.75,5.7c-3.13-0.03-5.6-2.53-5.59-5.66
		C376.76,380.82,379.25,378.34,382.39,378.33z"/>
	<path class="st0" d="M581.3,190.57c-3.12-0.12-5.55-2.73-5.45-5.84c0.1-3.11,2.75-5.61,5.8-5.49c3.11,0.13,5.55,2.74,5.46,5.84
		C587.02,188.17,584.35,190.68,581.3,190.57z"/>
	<path class="st0" d="M498.57,406.15c0.04,3.16-2.41,5.64-5.57,5.66c-3.13,0.01-5.66-2.5-5.64-5.61c0.01-3.04,2.47-5.53,5.51-5.58
		C496.02,400.58,498.53,403.01,498.57,406.15z"/>
	<path class="st0" d="M598.14,295.5c-0.01-3.13,2.5-5.67,5.61-5.65c3.08,0.01,5.63,2.61,5.6,5.7c-0.04,3.02-2.53,5.52-5.55,5.57
		C600.7,301.16,598.15,298.63,598.14,295.5z"/>
	<path class="st0" d="M365.7,162.66c0,3.13-2.54,5.64-5.64,5.58c-3.02-0.06-5.5-2.59-5.5-5.6c0-3.02,2.48-5.51,5.51-5.56
		C363.22,157.05,365.7,159.51,365.7,162.66z"/>
	<path class="st0" d="M332.54,339.77c0.02-3.05,2.45-5.5,5.49-5.53c3.08-0.03,5.65,2.54,5.63,5.6c-0.02,3.09-2.6,5.57-5.7,5.52
		C334.91,345.31,332.53,342.84,332.54,339.77z"/>
	<path class="st0" d="M537.2,146.13c-3.11-0.05-5.51-2.6-5.42-5.75c0.08-3.03,2.61-5.43,5.64-5.37c3,0.06,5.48,2.59,5.47,5.59
		C542.88,143.68,540.31,146.18,537.2,146.13z"/>
	<path class="st0" d="M432.1,406.26c-0.02,3.06-2.44,5.49-5.49,5.52c-3.1,0.02-5.65-2.51-5.63-5.59c0.03-3.01,2.52-5.5,5.53-5.53
		C429.62,400.63,432.12,403.14,432.1,406.26z"/>
	<path class="st0" d="M603.78,223.53c3.05,0.03,5.53,2.52,5.52,5.55c-0.01,3.02-2.52,5.53-5.55,5.55c-3.13,0.02-5.61-2.5-5.57-5.66
		C598.23,225.89,600.69,223.51,603.78,223.53z"/>
	<path class="st0" d="M321.49,273.42c-0.01,3.04-2.49,5.51-5.52,5.5c-3.01-0.01-5.51-2.54-5.5-5.54c0.02-3.01,2.55-5.52,5.54-5.51
		C319.04,267.89,321.5,270.39,321.49,273.42z"/>
	<path class="st0" d="M470.83,123.97c-3.08-0.04-5.47-2.5-5.42-5.59c0.05-3.07,2.54-5.43,5.65-5.36c2.98,0.07,5.38,2.53,5.36,5.5
		C476.4,121.57,473.9,124.01,470.83,123.97z"/>
	<path class="st0" d="M315.99,256.77c-3.02,0-5.42-2.36-5.46-5.37c-0.04-3.07,2.4-5.53,5.48-5.52c3.01,0.01,5.42,2.38,5.46,5.37
		C321.51,254.32,319.08,256.77,315.99,256.77z"/>
	<path class="st0" d="M448.74,123.94c-3.01-0.03-5.39-2.43-5.4-5.44c0-3.07,2.46-5.49,5.55-5.46c3,0.03,5.39,2.44,5.39,5.44
		C454.3,121.56,451.84,123.97,448.74,123.94z"/>
	<path class="st0" d="M382.48,135.11c2.98,0.06,5.4,2.53,5.38,5.49c-0.02,3.03-2.6,5.54-5.61,5.44c-2.99-0.1-5.33-2.58-5.27-5.58
		C377.04,137.47,379.53,135.05,382.48,135.11z"/>
	<path class="st0" d="M343.5,184.86c0.03,3.03-2.32,5.44-5.33,5.47c-3.09,0.04-5.57-2.4-5.54-5.46c0.02-2.98,2.45-5.39,5.44-5.39
		C341.09,179.47,343.47,181.83,343.5,184.86z"/>
	<path class="st0" d="M310.66,295.5c-0.01-3.01,2.43-5.44,5.41-5.4c2.89,0.04,5.31,2.47,5.32,5.36c0.01,2.96-2.48,5.42-5.46,5.39
		C313,300.81,310.66,298.44,310.66,295.5z"/>
	<path class="st0" d="M487.64,118.51c-0.01-3.01,2.43-5.44,5.41-5.4c2.89,0.04,5.31,2.47,5.32,5.36c0.01,2.96-2.48,5.42-5.46,5.39
		C489.98,123.83,487.64,121.46,487.64,118.51z"/>
	<path class="st0" d="M603.69,322.87c-2.94-0.02-5.31-2.39-5.32-5.3c0-2.98,2.45-5.36,5.48-5.31c2.95,0.05,5.23,2.42,5.2,5.38
		C609.01,320.58,606.65,322.89,603.69,322.87z"/>
	<path class="st0" d="M515.01,411.53c-2.94-0.03-5.31-2.4-5.3-5.32c0.01-2.98,2.47-5.36,5.49-5.3c2.94,0.06,5.23,2.44,5.18,5.4
		C520.34,409.26,517.97,411.56,515.01,411.53z"/>
	<path class="st0" d="M321.3,229.08c-0.01,2.91-2.42,5.32-5.32,5.31c-2.9-0.01-5.29-2.42-5.29-5.34c0.01-2.91,2.43-5.33,5.32-5.32
		C318.91,223.75,321.31,226.17,321.3,229.08z"/>
	<path class="st0" d="M431.87,118.49c0.01,2.91-2.4,5.32-5.3,5.33c-2.9,0.01-5.3-2.4-5.31-5.32c0-2.91,2.4-5.34,5.3-5.34
		C429.46,113.16,431.87,115.58,431.87,118.49z"/>
	<path class="st0" d="M598.52,206.96c0.01-2.89,2.27-5.18,5.14-5.21c2.91-0.03,5.33,2.36,5.32,5.25c-0.01,2.91-2.42,5.25-5.36,5.2
		C600.74,212.16,598.51,209.86,598.52,206.96z"/>
	<path class="st0" d="M404.53,411.45c-2.98,0.02-5.28-2.3-5.26-5.28c0.02-2.89,2.3-5.17,5.18-5.19c2.93-0.02,5.33,2.38,5.3,5.29
		C409.72,409.12,407.4,411.43,404.53,411.45z"/>
	<path class="st0" d="M564.58,383.98c-0.01,2.9-2.28,5.18-5.17,5.2c-2.86,0.01-5.22-2.29-5.27-5.14c-0.05-2.89,2.39-5.32,5.3-5.29
		C562.32,378.78,564.59,381.09,564.58,383.98z"/>
	<path class="st0" d="M576.28,361.85c0.02-2.89,2.3-5.16,5.2-5.16c2.86,0,5.21,2.31,5.24,5.16c0.03,2.89-2.43,5.33-5.32,5.27
		C578.51,367.06,576.26,364.73,576.28,361.85z"/>
	<path class="st0" d="M515.01,123.57c-2.81-0.02-5.06-2.27-5.06-5.07c0-2.86,2.34-5.14,5.23-5.08c2.81,0.05,4.99,2.33,4.95,5.17
		C520.09,121.41,517.86,123.59,515.01,123.57z"/>
	<path class="st0" d="M315.98,312.44c2.76-0.01,5.09,2.28,5.13,5.05c0.04,2.84-2.34,5.23-5.17,5.19c-2.79-0.04-5.03-2.33-5.02-5.14
		C310.93,314.73,313.19,312.45,315.98,312.44z"/>
	<path class="st0" d="M360.08,378.95c2.8-0.04,5.12,2.21,5.14,4.98c0.02,2.76-2.3,5.08-5.07,5.08c-2.74,0-4.95-2.18-5.01-4.92
		C355.09,381.24,357.25,378.99,360.08,378.95z"/>
	<path class="st0" d="M586.48,162.71c-0.03,2.82-2.3,5.03-5.12,4.97c-2.72-0.05-4.94-2.3-4.96-5.01c-0.02-2.77,2.3-5.08,5.07-5.07
		C584.28,157.61,586.51,159.89,586.48,162.71z"/>
	<path class="st0" d="M343.06,361.82c0.03,2.76-2.13,5.02-4.86,5.08c-2.77,0.07-5.15-2.26-5.14-5.02c0.01-2.7,2.29-4.98,4.99-5
		C340.77,356.85,343.02,359.08,343.06,361.82z"/>
	<path class="st0" d="M404.5,123.5c-2.71,0-4.99-2.24-5.03-4.96c-0.04-2.75,2.34-5.12,5.1-5.07c2.73,0.05,4.92,2.3,4.9,5.05
		C409.45,121.28,407.23,123.5,404.5,123.5z"/>
	<path class="st0" d="M315.95,211.96c-2.77-0.02-4.93-2.21-4.93-4.98c0-2.77,2.17-4.95,4.95-4.96c2.83-0.01,5.12,2.29,5.06,5.06
		C320.95,209.82,318.7,211.98,315.95,211.96z"/>
	<path class="st0" d="M559.44,135.61c2.75,0.03,4.97,2.25,4.97,4.98c-0.01,2.79-2.34,5.03-5.16,4.96c-2.76-0.07-4.89-2.29-4.84-5.07
		C554.45,137.72,556.67,135.58,559.44,135.61z"/>
	<path class="st0" d="M603.7,344.7c-2.72-0.01-4.84-2.11-4.87-4.83c-0.03-2.79,2.14-4.98,4.92-4.96c2.68,0.01,4.86,2.17,4.9,4.84
		C608.69,342.49,606.47,344.71,603.7,344.7z"/>
	<path class="st0" d="M537.28,411.11c-2.72-0.01-4.84-2.12-4.86-4.84c-0.03-2.79,2.14-4.97,4.93-4.96c2.68,0.01,4.86,2.18,4.89,4.85
		C542.27,408.91,540.05,411.13,537.28,411.11z"/>
	<path class="st0" d="M364.95,140.58c0,2.69-2.22,4.87-4.89,4.82c-2.59-0.05-4.74-2.24-4.73-4.83c0-2.58,2.16-4.78,4.75-4.83
		C362.73,135.69,364.96,137.9,364.95,140.58z"/>
	<path class="st0" d="M338.1,167.44c-2.73,0.01-4.85-2.12-4.82-4.85c0.03-2.65,2.11-4.7,4.77-4.72c2.7-0.01,4.9,2.18,4.85,4.84
		C342.86,165.34,340.73,167.43,338.1,167.44z"/>
	<path class="st0" d="M608.52,184.93c-0.01,2.68-2.2,4.79-4.91,4.74c-2.64-0.05-4.69-2.15-4.68-4.78c0.01-2.69,2.17-4.78,4.89-4.74
		C606.44,180.19,608.53,182.32,608.52,184.93z"/>
	<path class="st0" d="M387.19,406.21c0,2.67-2.21,4.86-4.86,4.82c-2.59-0.05-4.71-2.21-4.72-4.8c-0.01-2.65,2.25-4.88,4.88-4.83
		C385.08,401.46,387.19,403.62,387.19,406.21z"/>
	<path class="st0" d="M625.72,268.67c2.6-0.05,4.8,2.09,4.82,4.69c0.03,2.59-2.14,4.78-4.74,4.79c-2.54,0-4.64-2.06-4.7-4.61
		C621.04,270.87,623.09,268.72,625.72,268.67z"/>
	<path class="st0" d="M475.6,428.36c-0.02,2.66-2.13,4.7-4.8,4.65c-2.55-0.04-4.62-2.13-4.64-4.68c-0.02-2.61,2.13-4.75,4.75-4.75
		C473.56,423.59,475.62,425.69,475.6,428.36z"/>
	<path class="st0" d="M625.87,256.01c-2.58,0.03-4.67-1.97-4.73-4.54c-0.07-2.67,1.97-4.82,4.6-4.85c2.6-0.03,4.8,2.13,4.78,4.72
		C630.51,253.87,628.41,255.97,625.87,256.01z"/>
	<path class="st0" d="M448.86,423.6c2.53,0.02,4.65,2.13,4.68,4.65c0.03,2.59-2.14,4.75-4.76,4.74c-2.64-0.02-4.68-2.14-4.63-4.82
		C444.21,425.6,446.3,423.58,448.86,423.6z"/>
	<path class="st0" d="M537.37,113.82c2.55,0.03,4.59,2.12,4.58,4.7c-0.01,2.64-2.16,4.73-4.79,4.65c-2.53-0.08-4.61-2.27-4.54-4.77
		C532.7,115.86,534.85,113.78,537.37,113.82z"/>
	<path class="st0" d="M315.94,344.46c-2.58-0.03-4.59-2.08-4.58-4.66c0.01-2.59,2.02-4.6,4.62-4.61c2.64-0.01,4.78,2.15,4.71,4.74
		C320.61,342.47,318.5,344.48,315.94,344.46z"/>
	<path class="st0" d="M497.56,428.24c0.04,2.56-2.02,4.67-4.56,4.68c-2.45,0.01-4.54-2-4.62-4.46c-0.08-2.53,1.95-4.69,4.48-4.77
		C495.38,423.61,497.52,425.68,497.56,428.24z"/>
	<path class="st0" d="M630.38,295.43c0.03,2.55-2.04,4.66-4.58,4.67c-2.45,0-4.53-2.02-4.6-4.48c-0.07-2.53,1.97-4.69,4.5-4.75
		C628.23,290.8,630.36,292.87,630.38,295.43z"/>
	<path class="st0" d="M426.52,423.79c2.53-0.02,4.53,1.94,4.55,4.47c0.02,2.53-1.95,4.55-4.46,4.58c-2.46,0.03-4.56-2.03-4.59-4.49
		C421.99,425.87,424.03,423.81,426.52,423.79z"/>
	<path class="st0" d="M625.87,224.55c2.53,0.04,4.47,2.05,4.44,4.59c-0.03,2.51-2.08,4.51-4.57,4.47c-2.47-0.05-4.52-2.15-4.48-4.61
		C621.3,226.51,623.38,224.51,625.87,224.55z"/>
	<path class="st0" d="M386.91,118.52c-0.01,2.52-2.02,4.53-4.52,4.52c-2.47-0.01-4.54-2.09-4.53-4.55c0.01-2.48,2.07-4.51,4.56-4.5
		C384.95,114,386.92,115.98,386.91,118.52z"/>
	<path class="st0" d="M320.5,184.85c0.02,2.53-1.94,4.56-4.45,4.59c-2.46,0.04-4.57-2.01-4.6-4.48c-0.04-2.48,1.99-4.54,4.49-4.57
		C318.47,180.37,320.47,182.33,320.5,184.85z"/>
	<path class="st0" d="M581.48,388.46c-2.49,0-4.49-2.02-4.47-4.53c0.02-2.5,2.07-4.51,4.54-4.46c2.39,0.05,4.39,2.06,4.42,4.45
		C586.01,386.37,583.94,388.46,581.48,388.46z"/>
	<path class="st0" d="M298.31,273.42c-0.01,2.44-2,4.43-4.41,4.42c-2.4-0.01-4.41-2.04-4.4-4.45c0.01-2.41,2.03-4.43,4.43-4.42
		C296.35,268.97,298.32,270.97,298.31,273.42z"/>
	<path class="st0" d="M466.48,96.36c0.03-2.41,2.08-4.41,4.48-4.37c2.42,0.04,4.37,2.06,4.33,4.5c-0.03,2.43-2.06,4.42-4.46,4.37
		C468.42,100.81,466.45,98.77,466.48,96.36z"/>
	<path class="st0" d="M293.89,255.7c-2.45-0.01-4.41-1.97-4.39-4.41c0.01-2.44,1.98-4.38,4.44-4.37c2.46,0.01,4.39,1.95,4.38,4.41
		C298.3,253.81,296.37,255.71,293.89,255.7z"/>
	<path class="st0" d="M444.46,96.41c0-2.46,1.99-4.44,4.41-4.4c2.35,0.04,4.31,1.98,4.35,4.33c0.05,2.41-1.95,4.46-4.36,4.49
		C446.45,100.86,444.46,98.87,444.46,96.41z"/>
	<path class="st0" d="M608.02,361.82c0.03,2.39-1.82,4.33-4.19,4.39c-2.42,0.06-4.47-1.94-4.46-4.34c0.01-2.33,1.99-4.3,4.32-4.32
		C606.05,357.54,607.99,359.45,608.02,361.82z"/>
	<path class="st0" d="M559.35,410.53c-2.39-0.02-4.26-1.91-4.26-4.31c0-2.47,1.95-4.35,4.43-4.29c2.36,0.06,4.27,2.05,4.21,4.38
		C563.68,408.66,561.71,410.55,559.35,410.53z"/>
	<path class="st0" d="M519.33,428.27c0.02,2.38-1.92,4.34-4.29,4.33c-2.35-0.01-4.33-2.01-4.29-4.35c0.04-2.28,1.95-4.21,4.23-4.26
		C517.33,423.94,519.32,425.89,519.33,428.27z"/>
	<path class="st0" d="M625.72,321.81c-2.41-0.04-4.25-1.97-4.19-4.38c0.06-2.39,2.01-4.2,4.45-4.12c2.31,0.07,4.16,1.99,4.13,4.29
		C630.08,319.97,628.12,321.85,625.72,321.81z"/>
	<path class="st0" d="M298.18,295.44c0.02,2.37-1.92,4.33-4.27,4.33c-2.35,0-4.31-1.99-4.27-4.34c0.03-2.28,1.92-4.2,4.2-4.25
		C296.17,291.13,298.16,293.08,298.18,295.44z"/>
	<path class="st0" d="M492.96,100.66c-2.41-0.01-4.28-1.9-4.25-4.3c0.03-2.39,1.95-4.23,4.37-4.18c2.32,0.04,4.16,1.9,4.18,4.21
		C497.28,98.76,495.36,100.66,492.96,100.66z"/>
	<path class="st0" d="M585.72,140.55c0.01,2.32-1.81,4.19-4.14,4.24c-2.44,0.05-4.34-1.78-4.35-4.2c-0.01-2.34,1.8-4.2,4.13-4.25
		C583.77,136.3,585.71,138.17,585.72,140.55z"/>
	<path class="st0" d="M342.33,383.89c0.04,2.32-1.77,4.23-4.08,4.3c-2.44,0.08-4.36-1.73-4.4-4.14c-0.04-2.34,1.75-4.23,4.07-4.3
		C340.33,379.67,342.28,381.51,342.33,383.89z"/>
	<path class="st0" d="M289.75,229.11c-0.02-2.35,1.8-4.22,4.13-4.25c2.29-0.03,4.23,1.86,4.26,4.16c0.03,2.28-1.88,4.23-4.17,4.26
		C291.67,233.31,289.77,231.44,289.75,229.11z"/>
	<path class="st0" d="M400.32,428.23c0.03-2.34,1.93-4.17,4.25-4.13c2.3,0.04,4.18,1.99,4.14,4.28c-0.04,2.29-2.02,4.19-4.29,4.14
		C402.11,432.47,400.28,430.56,400.32,428.23z"/>
	<path class="st0" d="M430.74,96.43c-0.01,2.36-1.83,4.17-4.19,4.16c-2.32-0.01-4.21-1.9-4.2-4.2c0.01-2.3,1.92-4.18,4.23-4.17
		C428.92,92.23,430.74,94.08,430.74,96.43z"/>
	<path class="st0" d="M625.77,202.8c2.34-0.02,4.19,1.81,4.2,4.16c0.01,2.37-1.79,4.2-4.14,4.21c-2.32,0.01-4.23-1.85-4.24-4.15
		C621.57,204.72,623.46,202.81,625.77,202.8z"/>
	<path class="st0" d="M364.27,406.23c0,2.32-1.9,4.18-4.21,4.13c-2.22-0.05-4.06-1.93-4.05-4.15c0.01-2.21,1.86-4.09,4.07-4.14
		C362.37,402.03,364.27,403.92,364.27,406.23z"/>
	<path class="st0" d="M603.66,166.76c-2.34-0.03-4.12-1.91-4.04-4.26c0.07-2.26,1.88-3.97,4.17-3.95c2.25,0.03,4.07,1.85,4.09,4.08
		C607.89,164.92,605.98,166.79,603.66,166.76z"/>
	<path class="st0" d="M559.43,122.52c-2.29,0.02-4.07-1.74-4.07-4.03c0-2.22,1.71-3.98,3.91-4.03c2.28-0.06,4.13,1.7,4.18,3.95
		C563.5,120.67,561.71,122.5,559.43,122.52z"/>
	<path class="st0" d="M315.99,357.86c2.26,0,4.08,1.82,4.06,4.07c-0.02,2.26-1.85,4.02-4.14,3.99c-2.21-0.03-3.93-1.76-3.95-3.98
		C311.95,359.65,313.72,357.85,315.99,357.86z"/>
	<path class="st0" d="M342.04,140.49c0.04,2.21-1.65,4-3.84,4.07c-2.24,0.07-4.14-1.76-4.14-3.98c0-2.16,1.78-3.94,3.97-3.97
		C340.25,136.59,342,138.29,342.04,140.49z"/>
	<path class="st0" d="M519.01,96.4c0.01,2.22-1.73,3.98-3.94,3.99c-2.19,0.01-4-1.78-4.02-3.95c-0.01-2.17,1.78-3.96,3.98-3.97
		C517.27,92.46,519,94.17,519.01,96.4z"/>
	<path class="st0" d="M293.93,321.52c-2.19,0.01-4-1.78-4.02-3.95c-0.01-2.17,1.78-3.95,3.98-3.97c2.23-0.01,3.97,1.71,3.97,3.93
		C297.88,319.76,296.14,321.52,293.93,321.52z"/>
	<path class="st0" d="M293.99,210.84c-2.18,0.03-3.89-1.61-3.92-3.78c-0.03-2.17,1.63-3.89,3.79-3.92c2.15-0.03,3.91,1.66,3.95,3.79
		C297.84,209.05,296.14,210.8,293.99,210.84z"/>
	<path class="st0" d="M404.31,100.26c-2.15-0.08-3.76-1.85-3.67-4.03c0.09-2.15,1.86-3.76,4.03-3.68c2.12,0.09,3.8,1.92,3.7,4.04
		C408.27,98.73,406.48,100.34,404.31,100.26z"/>
	<path class="st0" d="M625.81,343.62c-2.11,0.01-3.88-1.75-3.85-3.84c0.02-2.09,1.82-3.84,3.91-3.8c2.06,0.04,3.7,1.7,3.72,3.77
		C629.62,341.91,627.95,343.62,625.81,343.62z"/>
	<path class="st0" d="M360.24,114.7c2.17,0.04,3.79,1.78,3.7,3.97c-0.08,2.08-1.81,3.7-3.88,3.64c-2.05-0.06-3.76-1.79-3.75-3.82
		C356.31,116.38,358.1,114.66,360.24,114.7z"/>
	<path class="st0" d="M533.52,428.36c-0.03-2.19,1.65-3.87,3.83-3.85c2.07,0.02,3.78,1.69,3.81,3.74c0.04,2.09-1.77,3.9-3.88,3.88
		C535.2,432.11,533.55,430.45,533.52,428.36z"/>
	<path class="st0" d="M319.79,162.72c-0.03,2.09-1.68,3.75-3.77,3.76c-2.11,0.01-3.91-1.79-3.87-3.88c0.04-2.11,1.85-3.81,3.99-3.73
		C318.24,158.93,319.82,160.6,319.79,162.72z"/>
	<path class="st0" d="M625.68,188.55c-2.01-0.06-3.54-1.69-3.5-3.73c0.04-2.02,1.66-3.6,3.67-3.57c2.05,0.02,3.74,1.81,3.63,3.83
		C629.37,187.06,627.68,188.61,625.68,188.55z"/>
	<path class="st0" d="M378.78,428.22c0.04-2.02,1.65-3.6,3.66-3.58c1.98,0.02,3.63,1.68,3.64,3.65c0.01,2.04-1.73,3.71-3.8,3.66
		C380.28,431.89,378.75,430.27,378.78,428.22z"/>
	<path class="st0" d="M581.52,402.74c1.86,0.02,3.43,1.58,3.46,3.44c0.03,1.92-1.6,3.54-3.55,3.52c-1.98-0.02-3.48-1.6-3.41-3.6
		C578.08,404.19,579.61,402.71,581.52,402.74z"/>
	<path class="st0" d="M600.27,384.05c-0.04-2,1.49-3.57,3.46-3.57c1.86,0,3.45,1.54,3.5,3.4c0.06,1.92-1.56,3.56-3.51,3.56
		C601.81,387.44,600.31,385.97,600.27,384.05z"/>
	<path class="st0" d="M290.46,339.73c0.03-1.91,1.54-3.4,3.45-3.41c1.93-0.01,3.56,1.65,3.51,3.56c-0.05,1.93-1.71,3.48-3.67,3.4
		C291.85,343.2,290.43,341.67,290.46,339.73z"/>
	<path class="st0" d="M533.86,96.5c-0.04-2,1.49-3.57,3.46-3.57c1.86,0,3.45,1.54,3.5,3.4c0.06,1.92-1.56,3.56-3.51,3.56
		C535.4,99.89,533.9,98.42,533.86,96.5z"/>
	<path class="st0" d="M647.89,254.68c-1.92,0.01-3.42-1.49-3.4-3.4c0.02-1.9,1.54-3.37,3.46-3.34c1.84,0.03,3.29,1.48,3.33,3.31
		C651.31,253.16,649.81,254.68,647.89,254.68z"/>
	<path class="st0" d="M448.75,446.96c1.85-0.04,3.45,1.52,3.46,3.39c0.01,1.88-1.54,3.45-3.41,3.44c-1.8-0.01-3.32-1.49-3.38-3.3
		C445.36,448.63,446.89,447.01,448.75,446.96z"/>
	<path class="st0" d="M647.81,276.82c-1.87-0.04-3.38-1.65-3.32-3.53c0.06-1.87,1.71-3.4,3.55-3.31c1.81,0.1,3.26,1.64,3.24,3.44
		C651.26,275.29,649.66,276.86,647.81,276.82z"/>
	<path class="st0" d="M470.83,446.96c1.85-0.04,3.45,1.53,3.46,3.4c0.01,1.8-1.44,3.34-3.25,3.43c-1.85,0.09-3.48-1.43-3.54-3.3
		C467.45,448.62,468.97,447.01,470.83,446.96z"/>
	<path class="st0" d="M293.84,188.2c-1.81-0.04-3.3-1.58-3.25-3.37c0.05-1.8,1.6-3.27,3.4-3.23c1.83,0.04,3.24,1.53,3.2,3.38
		C297.16,186.83,295.68,188.25,293.84,188.2z"/>
	<path class="st0" d="M379.13,96.36c0.03-1.85,1.49-3.26,3.34-3.23c1.81,0.03,3.3,1.56,3.26,3.35c-0.04,1.79-1.6,3.28-3.39,3.25
		C380.52,99.69,379.11,98.21,379.13,96.36z"/>
	<path class="st0" d="M647.85,292.22c1.73-0.02,3.21,1.43,3.25,3.18c0.04,1.83-1.47,3.36-3.28,3.32c-1.73-0.03-3.19-1.53-3.19-3.26
		C644.65,293.73,646.13,292.24,647.85,292.22z"/>
	<path class="st0" d="M603.68,143.76c-1.8-0.02-3.18-1.44-3.15-3.23c0.03-1.79,1.45-3.16,3.26-3.13c1.78,0.02,3.18,1.46,3.16,3.23
		C606.91,142.4,605.47,143.78,603.68,143.76z"/>
	<path class="st0" d="M341.29,406.22c0,1.78-1.41,3.18-3.2,3.19c-1.81,0-3.21-1.38-3.21-3.17c0-1.79,1.4-3.19,3.2-3.19
		C339.86,403.04,341.28,404.44,341.29,406.22z"/>
	<path class="st0" d="M496.21,450.33c0.03,1.76-1.36,3.21-3.14,3.25c-1.79,0.05-3.25-1.3-3.32-3.06c-0.07-1.84,1.36-3.33,3.21-3.34
		C494.76,447.18,496.18,448.55,496.21,450.33z"/>
	<path class="st0" d="M315.91,380.81c1.8-0.04,3.22,1.33,3.24,3.13c0.02,1.74-1.27,3.11-3,3.19c-1.79,0.08-3.28-1.27-3.35-3.03
		C312.74,382.33,314.15,380.84,315.91,380.81z"/>
	<path class="st0" d="M426.58,453.54c-1.78,0.01-3.22-1.42-3.2-3.19c0.02-1.76,1.48-3.17,3.26-3.14c1.73,0.03,3.06,1.38,3.09,3.11
		C429.75,452.13,428.39,453.53,426.58,453.54z"/>
	<path class="st0" d="M581.42,121.7c-1.76-0.04-3.15-1.52-3.1-3.3c0.05-1.71,1.44-3.08,3.13-3.1c1.74-0.02,3.22,1.47,3.21,3.21
		C584.65,120.26,583.15,121.73,581.42,121.7z"/>
	<path class="st0" d="M647.89,225.87c1.74,0,3.21,1.5,3.18,3.24c-0.03,1.74-1.55,3.21-3.27,3.15c-1.69-0.05-3.05-1.45-3.07-3.16
		C644.7,227.33,646.13,225.87,647.89,225.87z"/>
	<path class="st0" d="M628.89,361.81c0.04,1.74-1.24,3.12-2.96,3.19c-1.74,0.07-3.27-1.38-3.27-3.11c0-1.67,1.4-3.07,3.1-3.08
		C627.51,358.79,628.85,360.08,628.89,361.81z"/>
	<path class="st0" d="M562.48,428.33c-0.01,1.72-1.36,3.07-3.08,3.08c-1.68,0.01-3.11-1.38-3.15-3.05
		c-0.04-1.73,1.44-3.18,3.21-3.15C561.2,425.25,562.49,426.59,562.48,428.33z"/>
	<path class="st0" d="M271.64,270.41c1.64-0.01,2.97,1.32,2.98,2.97c0.01,1.66-1.31,3-2.95,3.01c-1.61,0.01-3-1.36-3.01-2.98
		C268.66,271.8,270.02,270.42,271.64,270.41z"/>
	<path class="st0" d="M470.89,71.18c1.64-0.01,2.96,1.32,2.97,2.98c0,1.66-1.32,3-2.96,3c-1.62,0-2.99-1.37-3-2.99
		C467.9,72.55,469.26,71.18,470.89,71.18z"/>
	<path class="st0" d="M274.56,251.34c-0.01,1.58-1.27,2.86-2.84,2.9c-1.61,0.03-3.01-1.35-3-2.94c0.02-1.53,1.34-2.87,2.87-2.91
		C273.21,248.35,274.57,249.71,274.56,251.34z"/>
	<path class="st0" d="M448.79,77.05c-1.66-0.01-2.93-1.34-2.87-3c0.06-1.59,1.31-2.78,2.92-2.77c1.58,0.01,2.86,1.27,2.9,2.82
		C451.79,75.72,450.44,77.07,448.79,77.05z"/>
	<path class="st0" d="M647.86,320.45c-1.57-0.01-2.87-1.26-2.91-2.82c-0.05-1.62,1.3-2.96,2.95-2.95c1.67,0.01,2.93,1.31,2.88,2.99
		C650.73,319.25,649.46,320.46,647.86,320.45z"/>
	<path class="st0" d="M515.03,453.27c-1.57-0.02-2.86-1.28-2.9-2.83c-0.04-1.62,1.31-2.95,2.96-2.94c1.67,0.02,2.92,1.33,2.86,3
		C517.9,452.08,516.62,453.29,515.03,453.27z"/>
	<path class="st0" d="M360.23,425.4c1.54,0.05,2.83,1.39,2.82,2.93c-0.02,1.62-1.45,2.96-3.04,2.86c-1.56-0.1-2.77-1.44-2.71-3.01
		C357.34,426.64,358.7,425.35,360.23,425.4z"/>
	<path class="st0" d="M338.11,121.39c-1.54,0.02-2.87-1.27-2.91-2.82c-0.04-1.61,1.34-3.01,2.94-2.97c1.54,0.04,2.82,1.36,2.82,2.92
		C340.94,120.07,339.66,121.37,338.11,121.39z"/>
	<path class="st0" d="M318.88,140.54c0.02,1.59-1.25,2.87-2.85,2.88c-1.62,0.01-2.89-1.21-2.9-2.82c-0.02-1.61,1.22-2.87,2.84-2.88
		C317.57,137.71,318.86,138.96,318.88,140.54z"/>
	<path class="st0" d="M628.6,162.63c0.01,1.58-1.26,2.88-2.82,2.87c-1.54-0.01-2.85-1.36-2.82-2.9c0.03-1.48,1.28-2.73,2.76-2.78
		C627.29,159.77,628.59,161.04,628.6,162.63z"/>
	<path class="st0" d="M495.75,74.25c-0.04,1.54-1.23,2.71-2.78,2.7c-1.59,0-2.87-1.31-2.82-2.87c0.05-1.49,1.31-2.71,2.81-2.71
		C494.57,71.36,495.79,72.62,495.75,74.25z"/>
	<path class="st0" d="M274.49,295.42c0.04,1.54-1.3,2.89-2.84,2.88c-1.51-0.01-2.72-1.23-2.75-2.76c-0.03-1.55,1.1-2.78,2.63-2.86
		C273.09,292.6,274.45,293.86,274.49,295.42z"/>
	<path class="st0" d="M429.26,74.13c0.02,1.5-1.25,2.78-2.74,2.75c-1.42-0.03-2.62-1.24-2.64-2.68c-0.02-1.5,1.27-2.79,2.74-2.75
		C428.05,71.48,429.24,72.69,429.26,74.13z"/>
	<path class="st0" d="M562.08,96.37c0.03,1.5-1.23,2.78-2.72,2.76c-1.42-0.02-2.62-1.23-2.65-2.66c-0.03-1.5,1.25-2.79,2.73-2.77
		C560.85,93.72,562.06,94.93,562.08,96.37z"/>
	<path class="st0" d="M407.17,450.42c-0.02,1.44-1.21,2.65-2.64,2.68c-1.49,0.03-2.76-1.24-2.74-2.75c0.02-1.5,1.33-2.76,2.81-2.68
		C406.04,447.74,407.19,448.98,407.17,450.42z"/>
	<path class="st0" d="M647.89,204.27c1.42,0.01,2.64,1.21,2.67,2.64c0.04,1.5-1.22,2.8-2.7,2.78c-1.5-0.01-2.73-1.31-2.67-2.81
		C645.24,205.46,646.48,204.26,647.89,204.27z"/>
	<path class="st0" d="M296.61,361.94c-0.03,1.53-1.27,2.68-2.83,2.61c-1.46-0.07-2.58-1.25-2.55-2.71c0.03-1.52,1.28-2.68,2.83-2.61
		C295.52,359.29,296.63,360.48,296.61,361.94z"/>
	<path class="st0" d="M271.59,231.73c-1.46-0.04-2.61-1.2-2.62-2.65c0-1.53,1.22-2.71,2.77-2.68c1.47,0.03,2.61,1.2,2.62,2.65
		C274.36,230.58,273.14,231.77,271.59,231.73z"/>
	<path class="st0" d="M296.39,162.71c-0.03,1.3-1.18,2.42-2.48,2.41c-1.39,0-2.48-1.19-2.41-2.61c0.07-1.35,1.18-2.37,2.53-2.31
		C295.34,160.26,296.42,161.41,296.39,162.71z"/>
	<path class="st0" d="M360.16,98.86c-1.33,0-2.44-1.08-2.47-2.39c-0.03-1.37,1.16-2.54,2.55-2.5c1.35,0.04,2.37,1.12,2.35,2.49
		C362.56,97.83,361.52,98.86,360.16,98.86z"/>
	<path class="st0" d="M271.64,315.18c1.23-0.01,2.31,1.02,2.37,2.27c0.06,1.31-1.02,2.46-2.33,2.47c-1.23,0.01-2.31-1.02-2.37-2.26
		C269.26,316.35,270.34,315.2,271.64,315.18z"/>
	<path class="st0" d="M606.03,406.22c0,1.27-1,2.32-2.26,2.35c-1.3,0.03-2.42-1.12-2.38-2.42c0.04-1.24,1.13-2.29,2.36-2.27
		C605.01,403.9,606.03,404.94,606.03,406.22z"/>
	<path class="st0" d="M515.05,71.82c1.24,0,2.29,1.04,2.31,2.3c0.02,1.27-0.97,2.34-2.22,2.39c-1.29,0.05-2.44-1.08-2.42-2.38
		C512.75,72.89,513.82,71.82,515.05,71.82z"/>
	<path class="st0" d="M650.08,339.89c-0.04,1.23-1.04,2.16-2.28,2.12c-1.22-0.04-2.2-1.07-2.15-2.27c0.05-1.22,1.06-2.14,2.3-2.11
		C649.2,337.66,650.12,338.64,650.08,339.89z"/>
	<path class="st0" d="M539.51,450.39c0,1.24-0.97,2.19-2.21,2.18c-1.23,0-2.23-0.99-2.22-2.2c0-1.21,1-2.18,2.24-2.18
		C538.57,448.2,539.52,449.14,539.51,450.39z"/>
	<path class="st0" d="M273.85,207.05c-0.04,1.21-1.02,2.13-2.25,2.1c-1.22-0.04-2.17-1.03-2.13-2.23c0.04-1.21,1.04-2.13,2.27-2.09
		C272.96,204.86,273.88,205.83,273.85,207.05z"/>
	<path class="st0" d="M404.53,76.33c-1.23,0.02-2.22-0.91-2.25-2.12c-0.03-1.2,0.93-2.19,2.15-2.21c1.23-0.02,2.2,0.9,2.23,2.12
		C406.7,75.34,405.77,76.3,404.53,76.33z"/>
	<path class="st0" d="M384.44,450.43c-0.02,1.16-0.98,2.06-2.12,2.01c-1.05-0.05-1.95-0.97-1.98-2.01c-0.02-1.1,0.96-2.11,2.07-2.11
		C383.54,448.32,384.46,449.27,384.44,450.43z"/>
	<path class="st0" d="M625.77,386.02c-1.12-0.02-2.08-1.02-2.04-2.13c0.05-1.1,1.09-2.06,2.18-1.99c1.07,0.06,1.91,0.96,1.92,2.05
		C627.84,385.11,626.91,386.04,625.77,386.02z"/>
	<path class="st0" d="M581.47,426.28c1.16,0,2.12,0.97,2.07,2.1c-0.05,1.07-0.97,1.94-2.06,1.95c-1.18,0-2.08-0.92-2.04-2.11
		C579.48,427.11,580.34,426.29,581.47,426.28z"/>
	<path class="st0" d="M647.9,182.89c1.1,0.01,2.01,0.87,2.05,1.95c0.04,1.12-0.93,2.1-2.08,2.1c-1.18-0.01-2.07-0.95-2.01-2.13
		C645.91,183.69,646.77,182.88,647.9,182.89z"/>
	<path class="st0" d="M605.59,118.56c-0.03,1.04-0.86,1.84-1.89,1.83c-1-0.01-1.88-0.88-1.89-1.87c-0.01-1.05,0.97-1.98,2.02-1.92
		C604.84,116.65,605.62,117.52,605.59,118.56z"/>
	<path class="st0" d="M314.13,406.3c-0.04-1.07,0.7-1.88,1.76-1.93c1.1-0.06,2.04,0.81,2.03,1.88c-0.01,0.98-0.89,1.86-1.89,1.87
		C315,408.13,314.16,407.33,314.13,406.3z"/>
	<path class="st0" d="M293.89,382.24c0.93-0.01,1.78,0.82,1.77,1.74c-0.01,0.93-0.86,1.74-1.8,1.71c-0.91-0.03-1.61-0.73-1.65-1.65
		C292.18,383.06,292.93,382.25,293.89,382.24z"/>
	<path class="st0" d="M581.45,94.68c0.93-0.01,1.78,0.82,1.77,1.74c-0.01,0.93-0.86,1.74-1.8,1.71c-0.91-0.03-1.61-0.73-1.65-1.65
		C579.74,95.5,580.48,94.7,581.45,94.68z"/>
	<path class="st0" d="M625.76,142.3c-0.94-0.02-1.75-0.88-1.71-1.8c0.05-0.92,0.94-1.72,1.86-1.65c0.9,0.06,1.58,0.8,1.58,1.72
		C627.51,141.56,626.75,142.32,625.76,142.3z"/>
	<path class="st0" d="M537.37,72.43c0.93,0.03,1.75,0.91,1.69,1.83c-0.06,0.93-0.95,1.7-1.88,1.62c-0.91-0.07-1.57-0.8-1.56-1.73
		C535.62,73.16,536.4,72.4,537.37,72.43z"/>
	<path class="st0" d="M273.41,339.87c-0.04,0.93-0.91,1.71-1.85,1.66c-0.97-0.06-1.67-0.88-1.59-1.87c0.07-0.91,0.82-1.59,1.72-1.58
		C272.62,338.09,273.45,338.96,273.41,339.87z"/>
	<path class="st0" d="M337.99,426.6c0.96-0.04,1.81,0.72,1.84,1.65c0.03,0.92-0.8,1.76-1.74,1.77c-0.9,0.01-1.64-0.68-1.71-1.58
		C336.31,427.45,337.01,426.65,337.99,426.6z"/>
	<path class="st0" d="M671.52,251.38c-0.04,0.81-0.8,1.51-1.62,1.48c-0.85-0.03-1.49-0.74-1.46-1.6c0.03-0.85,0.75-1.53,1.58-1.49
		C670.83,249.81,671.56,250.6,671.52,251.38z"/>
	<path class="st0" d="M472.41,472.38c0.04,0.86-0.59,1.57-1.44,1.61c-0.82,0.04-1.58-0.65-1.63-1.46c-0.04-0.79,0.67-1.58,1.48-1.62
		C471.65,470.86,472.37,471.53,472.41,472.38z"/>
	<path class="st0" d="M273.18,184.87c0.02,0.86-0.64,1.56-1.49,1.58c-0.82,0.02-1.57-0.7-1.59-1.5c-0.02-0.78,0.73-1.56,1.52-1.59
		C272.45,183.33,273.16,184.02,273.18,184.87z"/>
	<path class="st0" d="M649.4,361.87c0.01,0.86-0.65,1.55-1.5,1.56c-0.82,0.01-1.57-0.71-1.58-1.52c-0.01-0.79,0.74-1.56,1.54-1.57
		C648.68,360.32,649.39,361.02,649.4,361.87z"/>
	<path class="st0" d="M448.79,474c-0.85-0.02-1.5-0.72-1.48-1.58c0.02-0.85,0.73-1.54,1.56-1.51c0.79,0.02,1.54,0.81,1.52,1.59
		C450.36,473.31,449.6,474.02,448.79,474z"/>
	<path class="st0" d="M317.56,118.56c-0.04,0.82-0.8,1.51-1.62,1.47c-0.85-0.04-1.49-0.74-1.45-1.61c0.04-0.85,0.76-1.52,1.59-1.48
		C316.87,116.99,317.59,117.78,317.56,118.56z"/>
	<path class="st0" d="M671.52,273.41c-0.01,0.81-0.75,1.52-1.57,1.51c-0.86-0.01-1.51-0.67-1.51-1.54c0.01-0.87,0.66-1.51,1.53-1.5
		C670.83,271.9,671.53,272.6,671.52,273.41z"/>
	<path class="st0" d="M559.43,448.87c0.84,0.02,1.54,0.73,1.52,1.54c-0.02,0.81-0.76,1.51-1.58,1.49c-0.86-0.01-1.5-0.68-1.49-1.55
		C557.89,449.49,558.55,448.86,559.43,448.87z"/>
	<path class="st0" d="M382.47,72.66c0.84,0.03,1.53,0.76,1.5,1.57c-0.04,0.81-0.79,1.49-1.61,1.46c-0.86-0.03-1.49-0.71-1.46-1.58
		C380.92,73.25,381.6,72.62,382.47,72.66z"/>
	<path class="st0" d="M360.18,451.72c-0.69,0.02-1.34-0.62-1.36-1.31c-0.02-0.68,0.62-1.35,1.3-1.37c0.69-0.02,1.32,0.6,1.34,1.31
		C361.48,451.07,360.89,451.7,360.18,451.72z"/>
	<path class="st0" d="M339.41,96.4c0.01,0.69-0.63,1.34-1.32,1.35c-0.7,0.01-1.32-0.61-1.33-1.32c-0.01-0.72,0.6-1.35,1.3-1.36
		C338.74,95.07,339.4,95.72,339.41,96.4z"/>
	<path class="st0" d="M295.25,140.65c-0.04,0.69-0.74,1.31-1.41,1.26c-0.7-0.05-1.28-0.71-1.23-1.42c0.04-0.71,0.7-1.31,1.39-1.26
		C294.68,139.28,295.29,139.98,295.25,140.65z"/>
	<path class="st0" d="M671.27,295.42c0.03,0.74-0.5,1.32-1.25,1.35c-0.72,0.03-1.36-0.53-1.39-1.23c-0.04-0.71,0.54-1.32,1.27-1.35
		C670.66,294.16,671.24,294.68,671.27,295.42z"/>
	<path class="st0" d="M425.24,472.4c0.04-0.71,0.67-1.27,1.39-1.23c0.75,0.03,1.28,0.61,1.25,1.36c-0.03,0.74-0.61,1.26-1.37,1.23
		C425.77,473.72,425.2,473.11,425.24,472.4z"/>
	<path class="st0" d="M647.83,163.95c-0.75-0.03-1.29-0.6-1.26-1.34c0.03-0.74,0.61-1.26,1.36-1.24c0.73,0.02,1.31,0.63,1.28,1.34
		C649.19,163.4,648.55,163.97,647.83,163.95z"/>
	<path class="st0" d="M670,230.36c-0.72,0.02-1.35-0.55-1.38-1.25c-0.02-0.71,0.56-1.31,1.29-1.33c0.75-0.02,1.33,0.51,1.35,1.25
		C671.3,229.76,670.75,230.34,670,230.36z"/>
	<path class="st0" d="M494.29,472.47c0,0.74-0.57,1.29-1.32,1.28c-0.73,0-1.33-0.6-1.33-1.3c0.01-0.71,0.62-1.29,1.35-1.28
		C493.74,471.17,494.3,471.73,494.29,472.47z"/>
	<path class="st0" d="M250.62,273.45c-0.03,0.63-0.52,1.06-1.14,0.99c-0.6-0.07-0.92-0.43-0.96-1.01c-0.05-0.57,0.48-1.08,1.07-1.09
		C250.2,272.34,250.65,272.82,250.62,273.45z"/>
	<path class="st0" d="M449.87,52.4c-0.27,0.18-0.65,0.61-1.1,0.72c-0.55,0.13-1.18-0.6-0.98-1.1c0.16-0.4,0.6-0.82,1-0.96
		C449.32,50.88,449.87,51.48,449.87,52.4z"/>
	<path class="st0" d="M273.19,361.9c-0.72,0.49-1.11,0.93-1.57,1.04c-0.56,0.13-1.03-0.51-0.98-1.13c0.05-0.62,0.46-1.03,1-0.94
		C272.08,360.95,272.47,361.4,273.19,361.9z"/>
	<path class="st0" d="M669.69,318.61c-0.19-0.25-0.63-0.61-0.76-1.06c-0.16-0.53,0.48-1.07,1.07-1.05c0.6,0.03,0.94,0.37,1,0.96
		C671.06,318.09,670.62,318.58,669.69,318.61z"/>
	<path class="st0" d="M250.63,295.8c-0.27,0.18-0.65,0.61-1.1,0.72c-0.55,0.13-1.18-0.6-0.98-1.1c0.16-0.4,0.6-0.82,1-0.96
		C250.08,294.27,250.63,294.88,250.63,295.8z"/>
	<path class="st0" d="M605.25,428.33c-0.73,0.48-1.12,0.91-1.59,1.01c-0.55,0.12-1.02-0.54-0.96-1.15c0.06-0.62,0.47-1.02,1.01-0.92
		C604.16,427.37,604.54,427.83,605.25,428.33z"/>
	<path class="st0" d="M669.63,208.03c-0.18-0.26-0.6-0.64-0.7-1.1c-0.12-0.54,0.54-1.06,1.12-0.99c0.6,0.06,0.91,0.42,0.94,1.02
		C671.02,207.58,670.57,208.04,669.63,208.03z"/>
	<path class="st0" d="M560.42,74.15c0.01,0.64-0.44,1.08-1.07,1.06c-0.6-0.02-1.19-0.58-1-1.1c0.15-0.4,0.58-0.82,0.98-0.96
		C559.9,72.96,560.41,73.52,560.42,74.15z"/>
	<path class="st0" d="M404.74,471.38c0.21,0.26,0.66,0.62,0.8,1.08c0.16,0.52-0.5,1.12-1.07,1.07c-0.57-0.05-0.96-0.35-1.02-0.96
		C403.4,471.95,403.84,471.42,404.74,471.38z"/>
	<path class="st0" d="M515.43,473.51c-0.88,0.06-1.41-0.44-1.41-1.04c0-0.6,0.34-0.97,0.91-1.07c0.56-0.1,1.27,0.41,1.17,0.95
		C516.01,472.82,515.6,473.23,515.43,473.51z"/>
	<path class="st0" d="M492.64,51.03c0.9-0.03,1.39,0.47,1.38,1.08c-0.02,0.61-0.39,0.95-0.94,1.05c-0.54,0.1-1.26-0.47-1.14-1
		C492.04,51.7,492.46,51.3,492.64,51.03z"/>
	<path class="st0" d="M471.15,51c0.21,0.26,0.66,0.62,0.8,1.08c0.16,0.52-0.5,1.12-1.07,1.07c-0.57-0.05-0.96-0.35-1.02-0.96
		C469.81,51.57,470.25,51.04,471.15,51z"/>
	<path class="st0" d="M250.62,251.39c-0.04,0.6-0.63,1.18-1.14,0.96c-0.4-0.17-0.81-0.62-0.94-1.03c-0.17-0.52,0.49-1.08,1.07-1.07
		C250.2,250.26,250.66,250.78,250.62,251.39z"/>
	<path class="st0" d="M625.42,405.19c0.93-0.06,1.42,0.39,1.41,1.02c-0.01,0.59-0.29,0.99-0.9,1.05c-0.67,0.07-1.2-0.29-1.16-0.93
		C624.8,405.88,625.25,405.46,625.42,405.19z"/>
	<path class="st0" d="M670.97,185.02c-0.53,0.28-0.85,0.58-1.14,0.56c-0.22-0.01-0.62-0.51-0.57-0.66c0.11-0.3,0.45-0.68,0.73-0.7
		C670.23,184.21,670.51,184.63,670.97,185.02z"/>
	<path class="st0" d="M249.66,183.86c0.29,0.53,0.58,0.84,0.58,1.14c0,0.22-0.48,0.65-0.61,0.6c-0.3-0.11-0.7-0.43-0.73-0.7
		C248.87,184.64,249.28,184.35,249.66,183.86z"/>
	<path class="st0" d="M271.61,163.7c-0.3-0.52-0.59-0.82-0.59-1.12c0-0.22,0.48-0.65,0.6-0.61c0.31,0.11,0.71,0.42,0.74,0.69
		C272.38,162.91,271.98,163.21,271.61,163.7z"/>
	<path class="st0" d="M538.34,51.99c-0.45,0.38-0.69,0.73-0.99,0.78c-0.2,0.04-0.69-0.36-0.67-0.52c0.03-0.31,0.29-0.78,0.54-0.85
		C537.47,51.34,537.82,51.7,538.34,51.99z"/>
	<path class="st0" d="M516.1,52.09c-0.5,0.34-0.82,0.72-1.07,0.68c-0.25-0.04-0.56-0.47-0.62-0.78c-0.03-0.16,0.42-0.61,0.62-0.59
		C515.33,51.43,515.61,51.75,516.1,52.09z"/>
	<path class="st0" d="M426.63,53.13c-0.38-0.49-0.78-0.78-0.75-1.04c0.03-0.27,0.43-0.58,0.74-0.7c0.13-0.05,0.6,0.39,0.61,0.6
		C427.22,52.3,426.92,52.6,426.63,53.13z"/>
	<path class="st0" d="M383.44,52.08c-0.51,0.35-0.83,0.73-1.07,0.69c-0.27-0.05-0.57-0.46-0.64-0.77c-0.04-0.15,0.41-0.6,0.63-0.59
		C382.65,51.42,382.93,51.74,383.44,52.08z"/>
	<path class="st0" d="M249.52,230.11c-0.31-0.53-0.67-0.87-0.61-1.11c0.06-0.27,0.49-0.55,0.8-0.62c0.13-0.03,0.57,0.46,0.54,0.68
		C250.22,229.36,249.88,229.62,249.52,230.11z"/>
	<path class="st0" d="M670.97,362.01c-0.54,0.29-0.85,0.58-1.14,0.56c-0.22-0.01-0.62-0.51-0.57-0.66c0.11-0.3,0.45-0.67,0.73-0.7
		C670.23,361.19,670.51,361.61,670.97,362.01z"/>
	<path class="st0" d="M626.83,118.49c-0.51,0.35-0.83,0.73-1.07,0.69c-0.27-0.05-0.57-0.46-0.64-0.77c-0.04-0.15,0.41-0.6,0.63-0.59
		C626.04,117.83,626.32,118.15,626.83,118.49z"/>
	<path class="st0" d="M316.05,429.35c-0.37-0.49-0.77-0.79-0.75-1.04c0.03-0.27,0.43-0.58,0.74-0.69c0.13-0.04,0.6,0.39,0.6,0.61
		C316.65,428.52,316.35,428.82,316.05,429.35z"/>
	<path class="st0" d="M626.84,428.29c-0.51,0.35-0.82,0.73-1.07,0.69c-0.27-0.04-0.57-0.46-0.65-0.76c-0.04-0.15,0.41-0.6,0.62-0.59
		C626.04,427.64,626.32,427.96,626.84,428.29z"/>
	<path class="st0" d="M405.53,52.09c-0.5,0.34-0.82,0.71-1.08,0.67c-0.25-0.04-0.56-0.47-0.62-0.78c-0.03-0.16,0.42-0.61,0.62-0.59
		C404.76,51.43,405.04,51.75,405.53,52.09z"/>
	<path class="st0" d="M383.44,472.45c-0.51,0.35-0.83,0.73-1.07,0.69c-0.27-0.05-0.57-0.46-0.65-0.76c-0.04-0.15,0.41-0.6,0.62-0.59
		C382.65,471.8,382.93,472.12,383.44,472.45z"/>
	<path class="st0" d="M294.96,118.5c-0.5,0.34-0.82,0.72-1.07,0.68c-0.25-0.04-0.56-0.47-0.62-0.78c-0.03-0.16,0.42-0.61,0.62-0.59
		C294.19,117.84,294.47,118.16,294.96,118.5z"/>
	<path class="st0" d="M538.34,472.37c-0.45,0.38-0.7,0.72-0.99,0.78c-0.2,0.04-0.69-0.36-0.67-0.52c0.04-0.31,0.29-0.78,0.54-0.85
		C537.46,471.71,537.82,472.07,538.34,472.37z"/>
	<path class="st0" d="M558.36,472.56c0.45-0.38,0.7-0.72,1-0.78c0.2-0.04,0.69,0.36,0.67,0.52c-0.04,0.32-0.29,0.79-0.54,0.85
		C559.23,473.21,558.88,472.85,558.36,472.56z"/>
	<path class="st0" d="M647.88,139.6c0.32,0.45,0.65,0.71,0.68,1.01c0.02,0.19-0.47,0.65-0.6,0.61c-0.3-0.1-0.63-0.4-0.72-0.69
		C647.18,140.35,647.55,140.05,647.88,139.6z"/>
	<path class="st0" d="M271.68,139.6c0.31,0.45,0.63,0.73,0.66,1.03c0.01,0.19-0.49,0.64-0.62,0.59c-0.29-0.1-0.61-0.42-0.7-0.71
		C270.97,140.34,271.35,140.04,271.68,139.6z"/>
	<path class="st0" d="M648.98,384.04c-0.61,0.3-0.93,0.59-1.23,0.57c-0.2-0.01-0.53-0.46-0.51-0.7c0.01-0.23,0.42-0.62,0.61-0.6
		C648.16,383.35,648.43,383.67,648.98,384.04z"/>
	<path class="st0" d="M249.45,316.6c0.39,0.39,0.81,0.64,0.78,0.82c-0.05,0.31-0.34,0.66-0.62,0.8c-0.14,0.06-0.69-0.32-0.7-0.52
		C248.9,317.39,249.19,317.08,249.45,316.6z"/>
	<path class="st0" d="M316.88,96.49c-0.36,0.26-0.67,0.63-0.84,0.58c-0.3-0.1-0.51-0.46-0.76-0.7c0.28-0.22,0.55-0.55,0.86-0.6
		C316.31,95.73,316.56,96.16,316.88,96.49z"/>
	<path class="st0" d="M603.74,95.44c0.31,0.45,0.63,0.73,0.66,1.03c0.02,0.19-0.49,0.64-0.62,0.59c-0.29-0.1-0.61-0.42-0.7-0.71
		C603.03,96.18,603.41,95.88,603.74,95.44z"/>
	<path class="st0" d="M581.49,449.4c0.31,0.45,0.63,0.73,0.66,1.03c0.02,0.19-0.49,0.64-0.62,0.59c-0.29-0.1-0.62-0.42-0.7-0.71
		C580.78,450.14,581.15,449.84,581.49,449.4z"/>
	<path class="st0" d="M271.75,383c0.28,0.47,0.59,0.77,0.59,1.07c0,0.2-0.53,0.61-0.66,0.55c-0.29-0.12-0.59-0.46-0.65-0.76
		C270.98,383.68,271.38,383.41,271.75,383z"/>
	<path class="st0" d="M670.84,339.71c-0.31,0.33-0.55,0.77-0.72,0.74c-0.32-0.05-0.59-0.37-0.88-0.57c0.24-0.26,0.45-0.62,0.74-0.73
		C670.15,339.09,670.47,339.46,670.84,339.71z"/>
	<path class="st0" d="M582.57,74.21c-0.6,0.32-0.91,0.61-1.22,0.6c-0.2,0-0.54-0.45-0.53-0.68c0.01-0.23,0.4-0.64,0.6-0.62
		C581.73,73.53,582.01,73.84,582.57,74.21z"/>
	<path class="st0" d="M249.62,338.83c0.31,0.46,0.59,0.7,0.63,0.97c0.06,0.48-0.27,0.8-0.74,0.67c-0.26-0.07-0.63-0.45-0.6-0.65
		C248.95,339.52,249.29,339.26,249.62,338.83z"/>
	<path class="st0" d="M249.45,206.02c0.39,0.39,0.81,0.64,0.78,0.82c-0.05,0.31-0.34,0.66-0.62,0.8c-0.14,0.06-0.69-0.32-0.7-0.52
		C248.9,206.82,249.19,206.5,249.45,206.02z"/>
	<path class="st0" d="M360.02,73.2c0.39,0.39,0.81,0.64,0.78,0.82c-0.05,0.31-0.34,0.66-0.62,0.8c-0.14,0.06-0.69-0.32-0.7-0.52
		C359.47,73.99,359.76,73.68,360.02,73.2z"/>
	<path class="st0" d="M338.16,73.19c0.28,0.47,0.59,0.77,0.59,1.07c0,0.2-0.53,0.61-0.66,0.55c-0.29-0.12-0.59-0.46-0.65-0.76
		C337.4,73.88,337.8,73.6,338.16,73.19z"/>
	<path class="st0" d="M338.01,451.36c-0.3-0.47-0.57-0.72-0.6-0.99c-0.05-0.47,0.29-0.79,0.76-0.66c0.25,0.08,0.61,0.47,0.58,0.67
		C338.71,450.68,338.36,450.93,338.01,451.36z"/>
	<path class="st0" d="M295.02,406.15c-0.56,0.38-0.83,0.7-1.13,0.72c-0.2,0.02-0.6-0.38-0.61-0.6c-0.01-0.24,0.32-0.7,0.51-0.7
		C294.09,405.55,294.41,405.84,295.02,406.15z"/>
</g>
</svg>
